<svg width="400" height="140" viewBox="0 0 400 140" fill="none" xmlns="http://www.w3.org/2000/svg">
<rect x="0.5" y="0.5" width="399" height="139" rx="10" fill="#1a1b27" stroke="#2f3549"/>
<g transform="translate(20, 22)"><path fill="#70a5fd" d="M2 2.5A2.5 2.5 0 0 1 4.5 0h8.75a.75.75 0 0 1 .75.75v12.5a.75.75 0 0 1-.75.75h-2.5a.75.75 0 0 1 0-1.5h1.75v-2h-8a1 1 0 0 0-.714 1.7.75.75 0 1 1-1.072 1.05A2.495 2.495 0 0 1 2 11.5Zm10.5-1h-8a1 1 0 0 0-1 1v6.708A2.486 2.486 0 0 1 4.5 9h8ZM5 12.25a.25.25 0 0 1 .25-.25h3.5a.25.25 0 0 1 .25.25v3.25a.25.25 0 0 1-.4.2l-1.45-1.087a.249.249 0 0 0-.3 0L5.4 15.7a.25.25 0 0 1-.4-.2Z"/><text x="24" y="14" fill="#70a5fd" font-family="Segoe UI, Ubuntu, sans-serif" font-weight="600" font-size="15">Web_programiranje</text></g>
<text x="20" y="62" fill="#38bdae" font-family="Segoe UI, Ubuntu, sans-serif" font-size="13">Project from the course Web Programming in</text>
<text x="20" y="80" fill="#38bdae" font-family="Segoe UI, Ubuntu, sans-serif" font-size="13">Infrastructure Systems</text>
<g transform="translate(20, 122)"><circle cx="6" cy="-4" r="6" fill="#e34c26"/><text x="18" y="0" fill="#38bdae" font-family="Segoe UI, Ubuntu, sans-serif" font-size="12">HTML</text><g transform="translate(68, -13)"><path fill="#bf91f3" d="M8 .25a.75.75 0 0 1 .673.418l1.882 3.815 4.21.612a.75.75 0 0 1 .416 1.279l-3.046 2.97.719 4.192a.751.751 0 0 1-1.088.791L8 12.347l-3.766 1.98a.75.75 0 0 1-1.088-.79l.72-4.194L.818 6.374a.75.75 0 0 1 .416-1.28l4.21-.611L7.327.668A.75.75 0 0 1 8 .25Z"/><text x="20" y="12" fill="#38bdae" font-family="Segoe UI, Ubuntu, sans-serif" font-size="12">1</text></g></g>
</svg>
